<svg width="145" height="138" viewBox="0 0 145 138" fill="none" xmlns="http://www.w3.org/2000/svg">
<path d="M70.7775 1.43478C71.4001 -0.356338 73.9332 -0.356346 74.5558 1.43477L91.0188 48.7969C91.2935 49.587 92.0308 50.1228 92.8672 50.1398L142.999 51.1614C144.894 51.2 145.677 53.6091 144.166 54.7547L104.209 85.0477C103.543 85.5531 103.261 86.42 103.503 87.2206L118.023 135.214C118.572 137.029 116.523 138.518 114.967 137.435L73.809 108.795C73.1224 108.317 72.2109 108.317 71.5243 108.795L30.3666 137.435C28.8101 138.518 26.7608 137.029 27.31 135.214L41.8298 87.2206C42.072 86.42 41.7904 85.5531 41.1238 85.0477L1.16712 54.7547C-0.343946 53.6091 0.438809 51.2 2.33466 51.1614L52.4661 50.1398C53.3024 50.1228 54.0398 49.587 54.3144 48.7969L70.7775 1.43478Z" fill="#D4D4D4"/>
</svg>
